<?xml version="1.0" encoding="UTF-8"?>
<svg xmlns="http://www.w3.org/2000/svg" xmlns:xlink="http://www.w3.org/1999/xlink" viewBox="0 0 48 48" width="48px" height="48px">
<g id="surface46928210">
<path style=" stroke:none;fill-rule:nonzero;fill:rgb(78.039217%,44.705883%,57.254905%);fill-opacity:1;" d="M 43.980469 23.636719 C 44.050781 19.375 43.089844 14.308594 41.089844 8.363281 L 39.523438 3.699219 L 37.394531 8.132812 C 37.277344 8.371094 37.148438 8.601562 37.011719 8.832031 C 33.515625 5.828125 28.972656 4 24 4 C 12.953125 4 4 12.953125 4 24 C 4 35.046875 12.953125 44 24 44 C 35.046875 44 44 35.046875 44 24 C 44 23.878906 43.984375 23.757812 43.980469 23.636719 Z M 43.980469 23.636719 "/>
<path style=" stroke:none;fill-rule:nonzero;fill:rgb(100%,100%,100%);fill-opacity:1;" d="M 39.386719 32.558594 C 36.261719 36.859375 30.734375 37.089844 25.53125 37 L 16.8125 37 C 21.238281 35.40625 23.875 35.027344 26.566406 33.601562 C 31.632812 30.933594 36.644531 25.105469 37.6875 19.039062 C 35.757812 24.875 29.90625 29.886719 24.578125 31.925781 C 20.925781 33.320312 14.328125 34.671875 14.328125 34.671875 L 14.0625 34.527344 C 9.574219 32.269531 9.4375 22.214844 17.601562 18.96875 C 21.175781 17.546875 24.59375 18.328125 28.453125 17.375 C 32.574219 16.363281 37.34375 13.167969 39.285156 9 C 41.457031 15.667969 44.070312 26.105469 39.386719 32.558594 Z M 15.667969 38.445312 C 15.386719 38.796875 14.953125 39 14.503906 39 C 13.683594 39 13.011719 38.324219 13.011719 37.5 C 13.011719 36.675781 13.6875 36 14.503906 36 C 14.847656 36 15.183594 36.117188 15.445312 36.335938 C 16.085938 36.855469 16.1875 37.804688 15.667969 38.445312 Z M 15.667969 38.445312 "/>
</g>
</svg>
